# xmcd CD database file
#
# Track frame offsets:
#	150
#	24855
#	53187
#	81463
#	103155
#	113270
#	134485
#	153750
#	163065
#	185145
#	208184
#	239975
#
# Disc length: 3360 seconds
#
# Revision: 3
# Processed by: cddbd v1.5.2PL0 Copyright (c) Steve Scherf et al.
# Submitted via: CDex 1.70beta2
#
DISCID=a70d1e0c
DTITLE=Jeanette Lindström - In the Middle Of This Riddle
DYEAR=2005
DGENRE=Jazz
TTITLE0=Always
TTITLE1=From This tower
TTITLE2=The World
TTITLE3=You Could Rely On Me
TTITLE4=End
TTITLE5=Leaf
TTITLE6=Too
TTITLE7=Going Up
TTITLE8=Here
TTITLE9=When Things Get Real
TTITLE10=Be There
TTITLE11=Too (Take 1)
EXTD=YEAR: 2005
EXTT0=
EXTT1=
EXTT2=
EXTT3=
EXTT4=
EXTT5=
EXTT6=
EXTT7=
EXTT8=
EXTT9=
EXTT10=
EXTT11=
PLAYORDER=
